<svg width="875" height="2012" viewBox="0 0 875 2012" fill="none" xmlns="http://www.w3.org/2000/svg">
<mask id="mask0_9_41" style="mask-type:luminance" maskUnits="userSpaceOnUse" x="0" y="0" width="766" height="1142">
<path d="M0 0H765.32V1141.93H0V0Z" fill="white"/>
</mask>
<g mask="url(#mask0_9_41)">
<mask id="mask1_9_41" style="mask-type:luminance" maskUnits="userSpaceOnUse" x="0" y="0" width="766" height="1142">
<path d="M259.073 1141.65C135.634 1141.65 0 963.234 0 770.708C0 570.967 98.94 446.416 98.94 446.416C98.94 545.942 138.979 622.491 196.852 622.491C168.275 557.506 159.653 501.042 159.653 460.502C159.653 203.494 443.316 156.712 443.316 0.287231C443.316 0.287231 529.344 66.8898 529.344 142.955C529.344 229.529 505.945 189.266 505.945 308.231C505.945 396.283 662.63 453.5 662.63 559.038C662.63 615.176 638.694 691.419 618.417 714.098C687.724 714.098 717.487 572.042 717.487 531.73C739.066 574.96 765.32 633.89 765.32 767.137C765.32 929.49 674.343 1141.65 492.836 1141.65C492.836 1141.65 631.389 1060.54 631.389 927.641C631.389 843.764 599.746 817.351 580.142 795.426C577.932 894.462 548.864 950.092 494.377 950.092C460.298 950.092 411.359 896.731 411.359 838.474C411.359 786.504 481.512 749.909 481.512 642.304C481.512 508.516 373.093 460.4 373.093 460.4C385.361 485.172 394.935 510.497 394.935 570.967C394.935 677.281 255.109 706.869 255.109 813.509C255.109 871.543 279.005 935.38 279.005 935.38C242.707 935.38 178.577 870.605 178.577 784.973C162.998 806.754 133.931 830.375 133.931 906.24C133.931 1023.12 259.073 1141.65 259.073 1141.65Z" fill="white"/>
</mask>
<g mask="url(#mask1_9_41)">
<mask id="mask2_9_41" style="mask-type:luminance" maskUnits="userSpaceOnUse" x="0" y="0" width="766" height="1142">
<path d="M259.073 1141.65C135.634 1141.65 0 963.234 0 770.708C0 570.967 98.94 446.416 98.94 446.416C98.94 545.942 138.979 622.491 196.852 622.491C168.275 557.506 159.653 501.042 159.653 460.502C159.653 203.494 443.316 156.712 443.316 0.287231C443.316 0.287231 529.344 66.8898 529.344 142.955C529.344 229.529 505.945 189.266 505.945 308.231C505.945 396.283 662.63 453.5 662.63 559.038C662.63 615.176 638.694 691.419 618.417 714.098C687.724 714.098 717.487 572.042 717.487 531.73C739.066 574.96 765.32 633.89 765.32 767.137C765.32 929.49 674.343 1141.65 492.836 1141.65C492.836 1141.65 631.389 1060.54 631.389 927.641C631.389 843.764 599.746 817.351 580.142 795.426C577.932 894.462 548.864 950.092 494.377 950.092C460.298 950.092 411.359 896.731 411.359 838.474C411.359 786.504 481.512 749.909 481.512 642.304C481.512 508.516 373.093 460.4 373.093 460.4C385.361 485.172 394.935 510.497 394.935 570.967C394.935 677.281 255.109 706.869 255.109 813.509C255.109 871.543 279.005 935.38 279.005 935.38C242.707 935.38 178.577 870.605 178.577 784.973C162.998 806.754 133.931 830.375 133.931 906.24C133.931 1023.12 259.073 1141.65 259.073 1141.65Z" fill="white"/>
</mask>
<g mask="url(#mask2_9_41)">
<path d="M765.32 0.287231H0V1141.65H765.32V0.287231Z" fill="url(#paint0_linear_9_41)"/>
</g>
</g>
</g>
<path d="M875 1198.12C875 1130.72 823.961 1075.88 761.159 1075.88C698.358 1075.88 647.349 1130.72 647.349 1198.12C647.349 1230.02 659.051 1258.86 677.744 1280.64C663.522 1345.2 628.565 1357.74 552.712 1378.23C514.335 1388.6 470.107 1400.78 429.72 1426.59V1153.66C461.885 1132.04 483.519 1093.93 483.519 1050.27C483.519 982.867 432.45 928.03 369.739 928.03C306.937 928.03 255.868 982.867 255.868 1050.27C255.868 1093.96 277.532 1132.07 309.728 1153.69V1785.83C277.532 1807.45 255.868 1845.57 255.868 1889.26C255.868 1956.66 306.937 2011.49 369.739 2011.49C432.51 2011.49 483.549 1956.66 483.549 1889.26C483.549 1845.6 461.885 1807.45 429.75 1785.86V1661.95C444.632 1540.55 499.392 1525.6 582.027 1503.24C657.851 1482.71 760.709 1454.49 793.505 1314.69C840.494 1299.68 875 1253.41 875 1198.12ZM369.739 992.533C399.384 992.533 423.538 1018.47 423.538 1050.33C423.538 1082.2 399.354 1108.1 369.739 1108.1C340.063 1108.1 315.879 1082.17 315.879 1050.33C315.909 1018.44 340.033 992.533 369.739 992.533ZM369.739 1947.02C340.063 1947.02 315.879 1921.02 315.879 1889.22C315.879 1857.36 340.063 1831.45 369.739 1831.45C399.384 1831.45 423.538 1857.42 423.538 1889.22C423.538 1921.15 399.384 1947.02 369.739 1947.02ZM761.159 1255.92C731.484 1255.92 707.36 1229.99 707.36 1198.16C707.36 1166.29 731.544 1140.35 761.159 1140.35C790.805 1140.35 814.989 1166.29 814.989 1198.16C814.989 1230.02 790.865 1255.92 761.159 1255.92Z" fill="white"/>
<defs>
<linearGradient id="paint0_linear_9_41" x1="382.66" y1="0.287231" x2="382.66" y2="1141.65" gradientUnits="userSpaceOnUse">
<stop stop-color="#631400"/>
<stop offset="0.137299" stop-color="#871C01"/>
<stop offset="0.261924" stop-color="#A82302"/>
<stop offset="0.492845" stop-color="#C02701"/>
<stop offset="1" stop-color="#FF8800"/>
</linearGradient>
</defs>
</svg>
